<svg width="77" height="73" viewBox="0 0 77 73" fill="none" xmlns="http://www.w3.org/2000/svg">
<path opacity="0.987" fill-rule="evenodd" clip-rule="evenodd" d="M18.5973 0C20.767 0 22.9366 0 25.1063 0C27.9143 0.471629 30.7039 1.35092 33.4751 2.63788C35.0085 3.32299 36.4652 4.30574 37.8455 5.5861C37.9385 12.8266 37.9695 20.0679 37.9385 27.3098C33.4751 27.3098 29.0118 27.3098 24.5484 27.3098C24.6098 24.7051 24.5168 22.1189 24.2695 19.5514C23.5514 17.1405 22.3736 16.0026 20.736 16.1376C18.6945 15.9729 17.4547 17.5246 17.0165 20.7927C16.8925 31.0339 16.8925 41.2751 17.0165 51.5163C17.4349 54.7401 18.6437 56.2918 20.643 56.1714C23.5191 56.0255 24.8209 53.5428 24.5484 48.7232C23.5566 48.7232 22.5646 48.7232 21.5728 48.7232C21.5728 44.1715 21.5728 39.6201 21.5728 35.0683C26.7628 35.1701 31.9392 35.0668 37.1016 34.758C38.6833 23.1663 40.264 11.5804 41.8439 0C47.0511 0 52.2584 0 57.4656 0C58.961 12.4784 60.5727 24.892 62.3009 37.2407C63.0745 31.3129 63.6944 25.3129 64.1606 19.241C68.438 19.241 72.7154 19.241 76.9927 19.241C76.9927 19.6548 76.9927 20.0686 76.9927 20.4824C74.6493 35.7123 72.4176 51.0225 70.2977 66.4126C72.2205 66.3611 74.1422 66.4126 76.0629 66.5677C76.4696 66.8858 76.7796 67.3513 76.9927 67.9643C76.9927 68.7919 76.9927 69.6193 76.9927 70.447C76.6305 71.3693 76.1347 71.99 75.505 72.309C50.8946 72.309 26.2841 72.309 1.67376 72.309C0.963655 72.0781 0.405737 71.4574 0 70.447C0 69.6193 0 68.7919 0 67.9643C0.213196 67.3513 0.523151 66.8858 0.929864 66.5677C3.16154 66.4644 5.39321 66.3607 7.62489 66.2574C4.34128 62.3254 2.1406 57.1015 1.02285 50.5853C0.578907 47.8875 0.237957 45.1978 0 42.5165C0 38.2751 0 34.034 0 29.7926C0.369688 23.4425 1.57851 17.546 3.62647 12.1032C6.51361 6.25218 10.2021 2.57985 14.6919 1.08619C16.02 0.71679 17.3218 0.354728 18.5973 0ZM48.3529 31.0339C48.6191 31.1521 48.774 31.4625 48.8179 31.9649C50.2324 43.4226 51.6893 54.8537 53.1882 66.2574C50.0272 66.4126 46.8657 66.4644 43.7036 66.4126C45.159 54.5781 46.7089 42.7852 48.3529 31.0339Z" fill="#F2EEEC"/>
</svg>
