<?xml version="1.0" encoding="UTF-8"?>
<!DOCTYPE svg PUBLIC "-//W3C//DTD SVG 1.1//EN" "http://www.w3.org/Graphics/SVG/1.1/DTD/svg11.dtd">
<svg xmlns="http://www.w3.org/2000/svg" version="1.1" width="414px" height="233px" style="shape-rendering:geometricPrecision; text-rendering:geometricPrecision; image-rendering:optimizeQuality; fill-rule:evenodd; clip-rule:evenodd" xmlns:xlink="http://www.w3.org/1999/xlink">
<g><path style="opacity:0.987" fill="#e66e50" d="M 99.5,-0.5 C 111.167,-0.5 122.833,-0.5 134.5,-0.5C 149.599,1.01972 164.599,3.85305 179.5,8C 187.745,10.2076 195.578,13.3743 203,17.5C 203.5,40.831 203.667,64.1643 203.5,87.5C 179.5,87.5 155.5,87.5 131.5,87.5C 131.83,79.1067 131.33,70.7733 130,62.5C 126.139,54.7315 119.806,51.0648 111,51.5C 100.023,50.9692 93.3561,55.9692 91,66.5C 90.3333,99.5 90.3333,132.5 91,165.5C 93.2498,175.888 99.7498,180.888 110.5,180.5C 125.965,180.03 132.965,172.03 131.5,156.5C 126.167,156.5 120.833,156.5 115.5,156.5C 115.5,141.833 115.5,127.167 115.5,112.5C 143.407,112.828 171.241,112.495 199,111.5C 207.505,74.1485 216.005,36.8152 224.5,-0.5C 252.5,-0.5 280.5,-0.5 308.5,-0.5C 316.541,39.709 325.207,79.709 334.5,119.5C 338.66,100.399 341.993,81.0653 344.5,61.5C 367.5,61.5 390.5,61.5 413.5,61.5C 413.5,62.8333 413.5,64.1667 413.5,65.5C 400.899,114.575 388.899,163.909 377.5,213.5C 387.839,213.334 398.172,213.5 408.5,214C 410.687,215.025 412.354,216.525 413.5,218.5C 413.5,221.167 413.5,223.833 413.5,226.5C 411.552,229.472 408.886,231.472 405.5,232.5C 273.167,232.5 140.833,232.5 8.5,232.5C 4.6817,231.756 1.6817,229.756 -0.5,226.5C -0.5,223.833 -0.5,221.167 -0.5,218.5C 0.646381,216.525 2.31305,215.025 4.5,214C 16.5,213.667 28.5,213.333 40.5,213C 22.8436,200.33 11.0103,183.497 5,162.5C 2.61286,153.807 0.779523,145.14 -0.5,136.5C -0.5,122.833 -0.5,109.167 -0.5,95.5C 1.48786,75.0383 7.98786,56.0383 19,38.5C 34.5245,19.6463 54.3578,7.813 78.5,3C 85.6418,1.8097 92.6418,0.643035 99.5,-0.5 Z M 259.5,99.5 C 260.931,99.8807 261.764,100.881 262,102.5C 269.606,139.42 277.44,176.254 285.5,213C 268.503,213.5 251.503,213.667 234.5,213.5C 242.326,175.366 250.66,137.366 259.5,99.5 Z"/></g>
</svg>
