<svg width="143" height="100" viewBox="0 0 143 100" fill="none" xmlns="http://www.w3.org/2000/svg">
<g clip-path="url(#clip0_2_2)">
<mask id="mask0_2_2" style="mask-type:alpha" maskUnits="userSpaceOnUse" x="25" y="6" width="119" height="95">
<path d="M140.055 7.97551H28.8869C27.478 7.97551 26.3358 8.9601 26.3358 10.1747V97.4616C26.3358 98.6762 27.478 99.6608 28.8869 99.6608H140.055C141.464 99.6608 142.606 98.6762 142.606 97.4616V10.1747C142.606 8.9601 141.464 7.97551 140.055 7.97551Z" fill="url(#paint0_linear_2_2)" stroke="url(#paint1_linear_2_2)" stroke-width="2.26933"/>
</mask>
<g mask="url(#mask0_2_2)">
<path d="M140.055 7.97551H28.8869C27.478 7.97551 26.3358 8.9601 26.3358 10.1747V97.4616C26.3358 98.6762 27.478 99.6608 28.8869 99.6608H140.055C141.464 99.6608 142.606 98.6762 142.606 97.4616V10.1747C142.606 8.9601 141.464 7.97551 140.055 7.97551Z" fill="url(#paint2_linear_2_2)" stroke="url(#paint3_linear_2_2)" stroke-width="2.26933"/>
<path d="M130.345 15.2727H38.8083C37.8764 15.2727 37.1209 15.924 37.1209 16.7273V47.0909C37.1209 47.8942 37.8764 48.5455 38.8083 48.5455H130.345C131.277 48.5455 132.032 47.8942 132.032 47.0909V16.7273C132.032 15.924 131.277 15.2727 130.345 15.2727Z" fill="url(#paint4_linear_2_2)" fill-opacity="0.6"/>
<path d="M130.345 15.3039H38.8083C37.8964 15.3039 37.1572 15.9412 37.1572 16.7273V47.091C37.1572 47.877 37.8964 48.5143 38.8083 48.5143H130.345C131.257 48.5143 131.996 47.877 131.996 47.091V16.7273C131.996 15.9412 131.257 15.3039 130.345 15.3039Z" stroke="url(#paint5_linear_2_2)" stroke-opacity="0.6" stroke-width="0.343259"/>
<path d="M130.345 15.3039H38.8083C37.8964 15.3039 37.1572 15.9412 37.1572 16.7273V47.091C37.1572 47.877 37.8964 48.5143 38.8083 48.5143H130.345C131.257 48.5143 131.996 47.877 131.996 47.091V16.7273C131.996 15.9412 131.257 15.3039 130.345 15.3039Z" stroke="url(#paint6_linear_2_2)" stroke-width="0.343259"/>
<path d="M108.832 15.4545C120.713 15.4545 130.345 15.4138 130.345 15.3636C130.345 15.3134 120.713 15.2727 108.832 15.2727C96.9504 15.2727 87.3186 15.3134 87.3186 15.3636C87.3186 15.4138 96.9504 15.4545 108.832 15.4545Z" fill="url(#paint7_linear_2_2)"/>
<path d="M130.345 56.0909H38.8083C37.9346 56.0909 37.2264 56.7014 37.2264 57.4545V62.9091C37.2264 63.6622 37.9346 64.2727 38.8083 64.2727H130.345C131.219 64.2727 131.927 63.6622 131.927 62.9091V57.4545C131.927 56.7014 131.219 56.0909 130.345 56.0909Z" fill="url(#paint8_linear_2_2)"/>
<path d="M130.345 56.0909H38.8083C37.9346 56.0909 37.2264 56.7014 37.2264 57.4545V62.9091C37.2264 63.6622 37.9346 64.2727 38.8083 64.2727H130.345C131.219 64.2727 131.927 63.6622 131.927 62.9091V57.4545C131.927 56.7014 131.219 56.0909 130.345 56.0909Z" stroke="url(#paint9_linear_2_2)" stroke-opacity="0.6"/>
<path d="M130.345 56.0909H38.8083C37.9346 56.0909 37.2264 56.7014 37.2264 57.4545V62.9091C37.2264 63.6622 37.9346 64.2727 38.8083 64.2727H130.345C131.219 64.2727 131.927 63.6622 131.927 62.9091V57.4545C131.927 56.7014 131.219 56.0909 130.345 56.0909Z" stroke="url(#paint10_linear_2_2)"/>
<path d="M130.345 71.9091H38.8083C37.9346 71.9091 37.2264 72.5196 37.2264 73.2727V78.7273C37.2264 79.4804 37.9346 80.0909 38.8083 80.0909H130.345C131.219 80.0909 131.927 79.4804 131.927 78.7273V73.2727C131.927 72.5196 131.219 71.9091 130.345 71.9091Z" fill="url(#paint11_linear_2_2)"/>
<path d="M130.345 71.9091H38.8083C37.9346 71.9091 37.2264 72.5196 37.2264 73.2727V78.7273C37.2264 79.4804 37.9346 80.0909 38.8083 80.0909H130.345C131.219 80.0909 131.927 79.4804 131.927 78.7273V73.2727C131.927 72.5196 131.219 71.9091 130.345 71.9091Z" stroke="url(#paint12_linear_2_2)" stroke-opacity="0.6"/>
<path d="M130.345 71.9091H38.8083C37.9346 71.9091 37.2264 72.5196 37.2264 73.2727V78.7273C37.2264 79.4804 37.9346 80.0909 38.8083 80.0909H130.345C131.219 80.0909 131.927 79.4804 131.927 78.7273V73.2727C131.927 72.5196 131.219 71.9091 130.345 71.9091Z" stroke="url(#paint13_linear_2_2)"/>
</g>
<mask id="mask1_2_2" style="mask-type:luminance" maskUnits="userSpaceOnUse" x="37" y="68" width="22" height="3">
<path d="M56.8415 68.7273H38.4919C37.8512 68.7273 37.3319 69.175 37.3319 69.7273C37.3319 70.2796 37.8512 70.7273 38.4919 70.7273H56.8415C57.4821 70.7273 58.0015 70.2796 58.0015 69.7273C58.0015 69.175 57.4821 68.7273 56.8415 68.7273Z" fill="white"/>
</mask>
<g mask="url(#mask1_2_2)">
<path d="M56.8415 68.7273H38.4919C37.8512 68.7273 37.3319 69.175 37.3319 69.7273C37.3319 70.2796 37.8512 70.7273 38.4919 70.7273H56.8415C57.4821 70.7273 58.0015 70.2796 58.0015 69.7273C58.0015 69.175 57.4821 68.7273 56.8415 68.7273Z" fill="url(#paint14_linear_2_2)"/>
</g>
<mask id="mask2_2_2" style="mask-type:luminance" maskUnits="userSpaceOnUse" x="36" y="52" width="23" height="3">
<path d="M56.8414 52.5455H37.4373C36.7966 52.5455 36.2773 52.9932 36.2773 53.5455C36.2773 54.0977 36.7966 54.5455 37.4373 54.5455H56.8414C57.4821 54.5455 58.0015 54.0977 58.0015 53.5455C58.0015 52.9932 57.4821 52.5455 56.8414 52.5455Z" fill="white"/>
</mask>
<g mask="url(#mask2_2_2)">
<path d="M56.8414 52.5455H37.4373C36.7966 52.5455 36.2773 52.9932 36.2773 53.5455C36.2773 54.0977 36.7966 54.5455 37.4373 54.5455H56.8414C57.4821 54.5455 58.0015 54.0977 58.0015 53.5455C58.0015 52.9932 57.4821 52.5455 56.8414 52.5455Z" fill="url(#paint15_linear_2_2)"/>
</g>
<path d="M126.721 83.8182H42.643C39.7098 83.8182 37.3319 85.868 37.3319 88.3967V90.876C37.3319 93.4047 39.7098 95.4545 42.643 95.4545H126.721C129.655 95.4545 132.032 93.4047 132.032 90.876V88.3967C132.032 85.868 129.655 83.8182 126.721 83.8182Z" fill="url(#paint16_linear_2_2)"/>
<path d="M56.1935 0H1.59705C0.715023 0 0 0.616383 0 1.37673V40.0778C0 40.8382 0.715023 41.4545 1.59705 41.4545H56.1935C57.0755 41.4545 57.7906 40.8382 57.7906 40.0778V1.37673C57.7906 0.616383 57.0755 0 56.1935 0Z" fill="url(#paint17_linear_2_2)" fill-opacity="0.6"/>
<path d="M56.1934 0.0860443H1.59706C0.770157 0.0860443 0.099823 0.663904 0.099823 1.37673V40.0777C0.099823 40.7906 0.770157 41.3684 1.59706 41.3684H56.1934C57.0203 41.3684 57.6907 40.7906 57.6907 40.0777V1.37673C57.6907 0.663904 57.0203 0.0860443 56.1934 0.0860443Z" stroke="url(#paint18_linear_2_2)" stroke-width="0.946502"/>
<path d="M56.1934 0.0860443H1.59706C0.770157 0.0860443 0.099823 0.663904 0.099823 1.37673V40.0777C0.099823 40.7906 0.770157 41.3684 1.59706 41.3684H56.1934C57.0203 41.3684 57.6907 40.7906 57.6907 40.0777V1.37673C57.6907 0.663904 57.0203 0.0860443 56.1934 0.0860443Z" stroke="url(#paint19_linear_2_2)" stroke-width="0.946502"/>
<path d="M28.6844 12.101C30.464 12.101 31.9067 10.8573 31.9067 9.32322C31.9067 7.7891 30.464 6.54546 28.6844 6.54546C26.9047 6.54546 25.4621 7.7891 25.4621 9.32322C25.4621 10.8573 26.9047 12.101 28.6844 12.101Z" fill="#12B76A"/>
<path d="M29.9119 8.52966L28.2239 9.98467L27.4568 9.32331" stroke="#F9FAFB" stroke-width="1.45502" stroke-linecap="round" stroke-linejoin="round"/>
<g opacity="0.8">
<path d="M13.5566 16.101H13.993V15.3317H14.3211C14.8231 15.3317 15.1807 15.1422 15.1807 14.7152V14.7039C15.1807 14.2796 14.8362 14.0788 14.3112 14.0788H13.5566V16.101ZM13.993 15.0602V14.3701H14.3112C14.5901 14.3701 14.7542 14.4635 14.7542 14.7039V14.7152C14.7542 14.9386 14.6 15.0602 14.3112 15.0602H13.993ZM15.9406 16.1293C16.203 16.1293 16.354 16.0473 16.4655 15.92V16.101H16.8559V15.1309C16.8559 14.7265 16.5541 14.5907 16.1702 14.5907C15.7864 14.5907 15.4681 14.735 15.4353 15.08H15.8192C15.8388 14.9329 15.9406 14.8481 16.1473 14.8481C16.3802 14.8481 16.4589 14.9471 16.4589 15.1451V15.2214H16.2457C15.7535 15.2214 15.3664 15.3459 15.3664 15.6909C15.3664 15.9992 15.6256 16.1293 15.9406 16.1293ZM16.0357 15.8833C15.8388 15.8833 15.7601 15.8012 15.7601 15.6768C15.7601 15.4958 15.9537 15.4364 16.2555 15.4364H16.4589V15.5835C16.4589 15.7729 16.2785 15.8833 16.0357 15.8833ZM17.4532 16.6073H17.8436L18.7787 14.6218H18.3915L17.9716 15.575L17.5155 14.6218H17.0857L17.7649 15.9511L17.4532 16.6073ZM19.0764 16.101H19.4733V15.2158C19.4733 14.9895 19.6538 14.8764 19.8506 14.8764C20.0442 14.8764 20.1558 14.9697 20.1558 15.1875V16.101H20.5528V15.2158C20.5528 14.9895 20.7332 14.8764 20.93 14.8764C21.1269 14.8764 21.2353 14.9697 21.2353 15.1875V16.101H21.6322V15.1649C21.6322 14.7576 21.3762 14.5907 21.0613 14.5907C20.848 14.5907 20.6118 14.6727 20.4806 14.8566C20.3953 14.6727 20.2181 14.5907 19.995 14.5907C19.7424 14.5907 19.5554 14.7095 19.4733 14.8481V14.6218H19.0764V16.101ZM22.8427 16.1293C23.2824 16.1293 23.5743 15.9596 23.6302 15.6485H23.2463C23.2168 15.7927 23.092 15.8748 22.8526 15.8748C22.5573 15.8748 22.3932 15.7164 22.3801 15.4364H23.6367V15.3374C23.6367 14.8085 23.2529 14.5907 22.8262 14.5907C22.3375 14.5907 21.9733 14.8962 21.9733 15.3544V15.377C21.9733 15.8437 22.3375 16.1293 22.8427 16.1293ZM22.3867 15.2073C22.4261 14.9782 22.5868 14.8396 22.8262 14.8396C23.0723 14.8396 23.2234 14.9527 23.243 15.2073H22.3867ZM23.9913 16.101H24.3882V15.2299C24.3882 14.9952 24.5688 14.8764 24.7917 14.8764C25.0279 14.8764 25.133 14.9782 25.133 15.2016V16.101H25.5299V15.1705C25.5299 14.7633 25.2872 14.5907 24.9427 14.5907C24.6605 14.5907 24.4703 14.7123 24.3882 14.8566V14.6218H23.9913V16.101ZM26.5714 16.1265C26.6927 16.1265 26.7781 16.1095 26.8403 16.0897V15.8182C26.7846 15.838 26.7256 15.8465 26.6469 15.8465C26.5221 15.8465 26.4499 15.7871 26.4499 15.657V14.8792H26.8273V14.6218H26.4499V14.2966H26.053V14.6218H25.8233V14.8792H26.053V15.6881C26.053 15.9681 26.2302 16.1265 26.5714 16.1265ZM28.7316 16.1293C29.1975 16.1293 29.496 15.8889 29.5255 15.5495H29.1614C29.1385 15.7588 28.9579 15.8663 28.7481 15.8663C28.4559 15.8663 28.2722 15.6966 28.2722 15.3742V15.3515C28.2722 15.0461 28.4658 14.8651 28.7381 14.8651C28.9482 14.8651 29.099 14.9471 29.1319 15.1451H29.5158C29.4698 14.7378 29.1121 14.5907 28.7316 14.5907C28.2526 14.5907 27.8654 14.8877 27.8654 15.3572V15.3798C27.8654 15.8521 28.2395 16.1293 28.7316 16.1293ZM30.6351 15.8635C30.3333 15.8635 30.1595 15.674 30.1595 15.3713V15.3487C30.1595 15.0433 30.3398 14.8594 30.6351 14.8594C30.9304 14.8594 31.1075 15.0461 31.1075 15.3515V15.3713C31.1075 15.674 30.9304 15.8635 30.6351 15.8635ZM30.6319 16.1293C31.1371 16.1293 31.5144 15.8295 31.5144 15.3685V15.3459C31.5144 14.8933 31.1371 14.5907 30.6351 14.5907C30.13 14.5907 29.7526 14.8962 29.7526 15.3544V15.377C29.7526 15.8267 30.1266 16.1293 30.6319 16.1293ZM31.8732 16.101H32.2701V15.2299C32.2701 14.9952 32.4504 14.8764 32.6736 14.8764C32.9098 14.8764 33.0148 14.9782 33.0148 15.2016V16.101H33.4118V15.1705C33.4118 14.7633 33.169 14.5907 32.8246 14.5907C32.5424 14.5907 32.3522 14.7123 32.2701 14.8566V14.6218H31.8732V16.101ZM33.938 16.101H34.3352V14.8792H34.7256V14.6218H34.3352V14.4097C34.3352 14.2824 34.4008 14.1919 34.5581 14.1919C34.6305 14.1919 34.6796 14.1976 34.7256 14.2146V13.9487C34.6631 13.9317 34.6075 13.9233 34.509 13.9233C34.1447 13.9233 33.938 14.0986 33.938 14.4239V14.6218H33.7052V14.8792H33.938V16.101ZM35.023 16.101H35.4199V14.6218H35.023V16.101ZM35.2164 14.3786C35.3478 14.3786 35.4526 14.2938 35.4526 14.1835C35.4526 14.0703 35.3478 13.9855 35.2164 13.9855C35.0852 13.9855 34.9802 14.0703 34.9802 14.1835C34.9802 14.2938 35.0852 14.3786 35.2164 14.3786ZM35.9037 16.101H36.3007V15.3317C36.3007 15.0178 36.5108 14.9216 36.8586 14.9188V14.5992C36.5698 14.602 36.4089 14.7123 36.3007 14.899V14.6218H35.9037V16.101ZM37.2078 16.101H37.6048V15.2158C37.6048 14.9895 37.7851 14.8764 37.9821 14.8764C38.1757 14.8764 38.2871 14.9697 38.2871 15.1875V16.101H38.6842V15.2158C38.6842 14.9895 38.8646 14.8764 39.0616 14.8764C39.2583 14.8764 39.3665 14.9697 39.3665 15.1875V16.101H39.7635V15.1649C39.7635 14.7576 39.5076 14.5907 39.1927 14.5907C38.9795 14.5907 38.7433 14.6727 38.6119 14.8566C38.5267 14.6727 38.3495 14.5907 38.1264 14.5907C37.8737 14.5907 37.6868 14.7095 37.6048 14.8481V14.6218H37.2078V16.101ZM40.9741 16.1293C41.4137 16.1293 41.7058 15.9596 41.7615 15.6485H41.3776C41.3481 15.7927 41.2234 15.8748 40.984 15.8748C40.6888 15.8748 40.5247 15.7164 40.5116 15.4364H41.768V15.3374C41.768 14.8085 41.3841 14.5907 40.9577 14.5907C40.4688 14.5907 40.1047 14.8962 40.1047 15.3544V15.377C40.1047 15.8437 40.4688 16.1293 40.9741 16.1293ZM40.5181 15.2073C40.5574 14.9782 40.7183 14.8396 40.9577 14.8396C41.2038 14.8396 41.3546 14.9527 41.3744 15.2073H40.5181ZM42.7658 16.1293C43.0183 16.1293 43.2383 15.9992 43.33 15.8521V16.101H43.727V13.9374H43.33V14.8481C43.2349 14.701 43.0611 14.5907 42.7821 14.5907C42.336 14.5907 42.0112 14.8905 42.0112 15.3629V15.3855C42.0112 15.8663 42.336 16.1293 42.7658 16.1293ZM42.8641 15.8578C42.6083 15.8578 42.4181 15.7022 42.4181 15.377V15.3544C42.4181 15.0348 42.5887 14.8594 42.8806 14.8594C43.1693 14.8594 43.3431 15.0206 43.3431 15.3459V15.3685C43.3431 15.6994 43.1398 15.8578 42.8641 15.8578Z" fill="white"/>
</g>
<g opacity="0.8">
<path d="M7.91013 23.0909H8.15226L8.356 22.5665H9.22708L9.43377 23.0909H9.68771L8.97313 21.2709H8.63652L7.91013 23.0909ZM8.79301 21.4542L9.15916 22.3909H8.42687L8.79301 21.4542ZM10.0415 23.0909H10.2866V22.2764C10.2866 22.0371 10.4933 21.92 10.6941 21.92C10.9067 21.92 11.0219 22.0167 11.0219 22.2509V23.0909H11.267V22.2764C11.267 22.0371 11.4737 21.92 11.6744 21.92C11.887 21.92 12.0022 22.0167 12.0022 22.2509V23.0909H12.2473V22.2662C12.2473 21.8793 12.0052 21.7367 11.7276 21.7367C11.5357 21.7367 11.3053 21.8131 11.199 21.9862C11.1193 21.808 10.9451 21.7367 10.7473 21.7367C10.5258 21.7367 10.3575 21.8385 10.2866 21.9633V21.7596H10.0415V23.0909ZM13.3728 22.9382C13.0598 22.9382 12.8678 22.7396 12.8678 22.4367V22.4164C12.8678 22.1109 13.0627 21.9124 13.3728 21.9124C13.6799 21.9124 13.8777 22.1109 13.8777 22.4189V22.4367C13.8777 22.7371 13.6828 22.9382 13.3728 22.9382ZM13.3698 23.1138C13.8098 23.1138 14.1316 22.8364 14.1316 22.4342V22.4138C14.1316 22.0142 13.8098 21.7367 13.3728 21.7367C12.9358 21.7367 12.6139 22.0167 12.6139 22.4164V22.4367C12.6139 22.8262 12.9298 23.1138 13.3698 23.1138ZM15.0338 23.1138C15.2818 23.1138 15.4531 23.0044 15.5239 22.8796V23.0909H15.769V21.7596H15.5239V22.5665C15.5239 22.8058 15.3172 22.9305 15.0987 22.9305C14.8566 22.9305 14.7414 22.8262 14.7414 22.592V21.7596H14.4964V22.6022C14.4964 22.9687 14.7267 23.1138 15.0338 23.1138ZM16.2643 23.0909H16.5094V22.284C16.5094 22.0447 16.7132 21.92 16.9405 21.92C17.1886 21.92 17.3037 22.0244 17.3037 22.2585V23.0909H17.5488V22.2738C17.5488 21.8869 17.3244 21.7367 17.0055 21.7367C16.7516 21.7367 16.5803 21.8462 16.5094 21.9709V21.7596H16.2643V23.0909ZM18.4986 23.1087C18.599 23.1087 18.6581 23.096 18.7082 23.0807V22.9025C18.6551 22.9204 18.596 22.9305 18.5193 22.9305C18.3953 22.9305 18.3273 22.8669 18.3273 22.7371V21.9378H18.6876V21.7596H18.3273V21.4567H18.0823V21.7596H17.8608V21.9378H18.0823V22.7575C18.0823 22.9662 18.2181 23.1087 18.4986 23.1087Z" fill="#D0D5DD"/>
<path d="M8.06958 28.7273H8.31466V27.1669L9.38063 28.7273H9.6759V26.9073H9.43082V28.4116L8.40325 26.9073H8.06958V28.7273ZM10.8205 28.7502C11.1689 28.7502 11.4258 28.6102 11.479 28.3429H11.2339C11.2014 28.4982 11.0626 28.5745 10.8235 28.5745C10.5075 28.5745 10.3392 28.4065 10.3274 28.1036H11.4908V28.0349C11.4908 27.5589 11.1542 27.3731 10.7969 27.3731C10.3717 27.3731 10.0735 27.6531 10.0735 28.0553V28.0756C10.0735 28.4855 10.3835 28.7502 10.8205 28.7502ZM10.3363 27.9331C10.3776 27.6964 10.5459 27.5487 10.7969 27.5487C11.0508 27.5487 11.2162 27.6582 11.2398 27.9331H10.3363ZM12.3364 28.7451C12.4368 28.7451 12.4958 28.7324 12.546 28.7171V28.5389C12.4929 28.5567 12.4338 28.5669 12.357 28.5669C12.233 28.5669 12.1651 28.5033 12.1651 28.3735V27.5742H12.5253V27.396H12.1651V27.0931H11.92V27.396H11.6986V27.5742H11.92V28.3938C11.92 28.6025 12.0558 28.7451 12.3364 28.7451ZM13.2265 28.7273H13.4952L13.8555 27.7295L14.1773 28.7273H14.449L14.9303 27.396H14.6793L14.3161 28.4676L13.9647 27.396H13.7521L13.3771 28.4676L13.0169 27.396H12.7511L13.2265 28.7273ZM15.8757 28.5745C15.5627 28.5745 15.3708 28.376 15.3708 28.0731V28.0527C15.3708 27.7473 15.5657 27.5487 15.8757 27.5487C16.1828 27.5487 16.3807 27.7473 16.3807 28.0553V28.0731C16.3807 28.3735 16.1858 28.5745 15.8757 28.5745ZM15.8728 28.7502C16.3128 28.7502 16.6346 28.4727 16.6346 28.0705V28.0502C16.6346 27.6505 16.3128 27.3731 15.8757 27.3731C15.4387 27.3731 15.1169 27.6531 15.1169 28.0527V28.0731C15.1169 28.4625 15.4328 28.7502 15.8728 28.7502ZM17.0141 28.7273H17.2592V27.9967C17.2592 27.6684 17.457 27.5844 17.767 27.5716V27.3731C17.4895 27.3807 17.3566 27.4851 17.2592 27.6353V27.396H17.0141V28.7273ZM18.1243 28.7273H18.3694V28.0375L19.0544 28.7273H19.3526L18.6351 28.0145L19.2965 27.396H19.0101L18.3694 28.0095V26.7596H18.1243V28.7273Z" fill="#D0D5DD"/>
<path d="M8.50365 34.3636H8.76054V32.7244H9.37473V32.5436H7.88947V32.7244H8.50365V34.3636ZM9.58882 34.3636H9.83391V33.5567C9.83391 33.3175 10.0377 33.1927 10.265 33.1927C10.5131 33.1927 10.6282 33.2971 10.6282 33.5313V34.3636H10.8733V33.5465C10.8733 33.1596 10.6489 33.0095 10.33 33.0095C10.076 33.0095 9.90477 33.1189 9.83391 33.2436V33.0324H9.58882V34.3636ZM11.1882 34.3636H11.451L11.8762 33.8265L12.2926 34.3636H12.582L12.018 33.6636L12.5288 33.0324H12.2631L11.888 33.516L11.5101 33.0324H11.2237L11.7404 33.6789L11.1882 34.3636ZM13.7276 34.3636H13.9845V32.5436H13.7276V34.3636ZM14.7886 34.1829V32.7218H15.075C15.6567 32.7218 15.893 33.0171 15.893 33.4371V33.4575C15.893 33.9029 15.6213 34.1829 15.078 34.1829H14.7886ZM14.5317 34.3636H15.0839C15.8221 34.3636 16.1587 33.964 16.1587 33.46V33.4371C16.1587 32.9305 15.8162 32.5436 15.0898 32.5436H14.5317V34.3636Z" fill="#D0D5DD"/>
</g>
<path d="M63.3665 89.5H62.9261C62.9001 89.3733 62.8545 89.2621 62.7894 89.1662C62.7255 89.0703 62.6474 88.9898 62.555 88.9247C62.4639 88.8584 62.3627 88.8087 62.2514 88.7756C62.1402 88.7424 62.0241 88.7259 61.9034 88.7259C61.6832 88.7259 61.4838 88.7815 61.305 88.8928C61.1275 89.004 60.986 89.168 60.8807 89.3846C60.7765 89.6012 60.7244 89.867 60.7244 90.1818C60.7244 90.4967 60.7765 90.7624 60.8807 90.979C60.986 91.1957 61.1275 91.3596 61.305 91.4709C61.4838 91.5821 61.6832 91.6378 61.9034 91.6378C62.0241 91.6378 62.1402 91.6212 62.2514 91.5881C62.3627 91.5549 62.4639 91.5058 62.555 91.4407C62.6474 91.3744 62.7255 91.2933 62.7894 91.1974C62.8545 91.1004 62.9001 90.9891 62.9261 90.8636H63.3665C63.3333 91.0495 63.273 91.2158 63.1854 91.3626C63.0978 91.5094 62.9889 91.6342 62.8587 91.7372C62.7285 91.839 62.5823 91.9165 62.4201 91.9698C62.2591 92.0231 62.0869 92.0497 61.9034 92.0497C61.5933 92.0497 61.3175 91.974 61.076 91.8224C60.8345 91.6709 60.6445 91.4555 60.506 91.1761C60.3675 90.8968 60.2983 90.5653 60.2983 90.1818C60.2983 89.7983 60.3675 89.4669 60.506 89.1875C60.6445 88.9081 60.8345 88.6927 61.076 88.5412C61.3175 88.3897 61.5933 88.3139 61.9034 88.3139C62.0869 88.3139 62.2591 88.3406 62.4201 88.3938C62.5823 88.4471 62.7285 88.5252 62.8587 88.6282C62.9889 88.73 63.0978 88.8543 63.1854 89.0011C63.273 89.1467 63.3333 89.313 63.3665 89.5ZM65.1292 92.0568C64.883 92.0568 64.6669 91.9982 64.4811 91.881C64.2964 91.7638 64.152 91.5999 64.0479 91.3892C63.9449 91.1785 63.8934 90.9323 63.8934 90.6506C63.8934 90.3665 63.9449 90.1185 64.0479 89.9066C64.152 89.6947 64.2964 89.5302 64.4811 89.413C64.6669 89.2958 64.883 89.2372 65.1292 89.2372C65.3754 89.2372 65.5908 89.2958 65.7755 89.413C65.9613 89.5302 66.1057 89.6947 66.2087 89.9066C66.3129 90.1185 66.365 90.3665 66.365 90.6506C66.365 90.9323 66.3129 91.1785 66.2087 91.3892C66.1057 91.5999 65.9613 91.7638 65.7755 91.881C65.5908 91.9982 65.3754 92.0568 65.1292 92.0568ZM65.1292 91.6804C65.3162 91.6804 65.4701 91.6325 65.5908 91.5366C65.7116 91.4407 65.8009 91.3146 65.8589 91.1584C65.9169 91.0021 65.9459 90.8329 65.9459 90.6506C65.9459 90.4683 65.9169 90.2984 65.8589 90.141C65.8009 89.9835 65.7116 89.8563 65.5908 89.7592C65.4701 89.6622 65.3162 89.6136 65.1292 89.6136C64.9421 89.6136 64.7883 89.6622 64.6675 89.7592C64.5468 89.8563 64.4574 89.9835 64.3994 90.141C64.3414 90.2984 64.3124 90.4683 64.3124 90.6506C64.3124 90.8329 64.3414 91.0021 64.3994 91.1584C64.4574 91.3146 64.5468 91.4407 64.6675 91.5366C64.7883 91.6325 64.9421 91.6804 65.1292 91.6804ZM67.0046 92V89.2727H67.4094V89.6989H67.445C67.5018 89.5533 67.5935 89.4402 67.7202 89.3597C67.8468 89.2781 67.9989 89.2372 68.1765 89.2372C68.3564 89.2372 68.5062 89.2781 68.6257 89.3597C68.7464 89.4402 68.8406 89.5533 68.908 89.6989H68.9364C69.0063 89.558 69.111 89.4461 69.2507 89.3633C69.3904 89.2792 69.5579 89.2372 69.7532 89.2372C69.997 89.2372 70.1965 89.3136 70.3516 89.4663C70.5066 89.6178 70.5842 89.8539 70.5842 90.1747V92H70.1651V90.1747C70.1651 89.9735 70.1101 89.8297 70 89.7433C69.8899 89.6568 69.7603 89.6136 69.6112 89.6136C69.4194 89.6136 69.2708 89.6716 69.1655 89.7876C69.0601 89.9025 69.0075 90.0481 69.0075 90.2244V92H68.5813V90.1321C68.5813 89.977 68.531 89.8522 68.4304 89.7575C68.3298 89.6616 68.2002 89.6136 68.0415 89.6136C67.9326 89.6136 67.8308 89.6426 67.7362 89.7006C67.6426 89.7586 67.5669 89.8391 67.5089 89.9421C67.4521 90.0439 67.4237 90.1617 67.4237 90.2955V92H67.0046ZM71.3503 93.0227V89.2727H71.7551V89.706H71.8049C71.8356 89.6586 71.8783 89.5982 71.9327 89.5249C71.9883 89.4503 72.0676 89.384 72.1706 89.326C72.2748 89.2668 72.4157 89.2372 72.5932 89.2372C72.8229 89.2372 73.0253 89.2946 73.2005 89.4094C73.3757 89.5243 73.5124 89.687 73.6106 89.8977C73.7089 90.1084 73.758 90.357 73.758 90.6435C73.758 90.9323 73.7089 91.1826 73.6106 91.3945C73.5124 91.6052 73.3762 91.7686 73.2022 91.8846C73.0282 91.9994 72.8276 92.0568 72.6003 92.0568C72.4251 92.0568 72.2849 92.0278 72.1795 91.9698C72.0742 91.9106 71.9931 91.8437 71.9363 91.7692C71.8794 91.6934 71.8356 91.6307 71.8049 91.581H71.7694V93.0227H71.3503ZM71.7623 90.6364C71.7623 90.8423 71.7924 91.024 71.8528 91.1815C71.9132 91.3377 72.0014 91.4602 72.1174 91.549C72.2334 91.6366 72.3754 91.6804 72.5435 91.6804C72.7187 91.6804 72.8649 91.6342 72.9821 91.5419C73.1004 91.4484 73.1892 91.3229 73.2484 91.1655C73.3088 91.0069 73.339 90.8305 73.339 90.6364C73.339 90.4446 73.3094 90.2718 73.2502 90.1179C73.1922 89.9628 73.104 89.8403 72.9856 89.7504C72.8684 89.6592 72.7211 89.6136 72.5435 89.6136C72.373 89.6136 72.2298 89.6568 72.1138 89.7433C71.9978 89.8285 71.9102 89.948 71.851 90.1019C71.7918 90.2546 71.7623 90.4328 71.7623 90.6364ZM74.8162 88.3636V92H74.3972V88.3636H74.8162ZM76.7272 92.0568C76.4644 92.0568 76.2377 91.9988 76.0471 91.8828C75.8577 91.7656 75.7116 91.6023 75.6086 91.3928C75.5068 91.1821 75.4559 90.937 75.4559 90.6577C75.4559 90.3783 75.5068 90.1321 75.6086 89.919C75.7116 89.7048 75.8548 89.5379 76.0383 89.4183C76.2229 89.2976 76.4384 89.2372 76.6846 89.2372C76.8266 89.2372 76.9669 89.2609 77.1054 89.3082C77.2439 89.3556 77.3699 89.4325 77.4836 89.5391C77.5972 89.6444 77.6878 89.7841 77.7552 89.9581C77.8227 90.1321 77.8564 90.3464 77.8564 90.6009V90.7784H75.7542V90.4162H77.4303C77.4303 90.2623 77.3995 90.125 77.338 90.0043C77.2776 89.8835 77.1912 89.7882 77.0787 89.7184C76.9675 89.6486 76.8361 89.6136 76.6846 89.6136C76.5177 89.6136 76.3733 89.6551 76.2513 89.7379C76.1306 89.8196 76.0377 89.9261 75.9726 90.0575C75.9075 90.1889 75.8749 90.3298 75.8749 90.4801V90.7216C75.8749 90.9276 75.9104 91.1022 75.9814 91.2454C76.0537 91.3874 76.1537 91.4957 76.2815 91.5703C76.4094 91.6437 76.5579 91.6804 76.7272 91.6804C76.8373 91.6804 76.9367 91.665 77.0255 91.6342C77.1154 91.6023 77.193 91.5549 77.2581 91.4922C77.3232 91.4283 77.3735 91.349 77.409 91.2543L77.8138 91.3679C77.7712 91.5052 77.6996 91.6259 77.599 91.7301C77.4984 91.8331 77.3741 91.9136 77.2261 91.9716C77.0782 92.0284 76.9118 92.0568 76.7272 92.0568ZM79.68 89.2727V89.6278H78.2666V89.2727H79.68ZM78.6785 88.6193H79.0976V91.2188C79.0976 91.3371 79.1147 91.4259 79.1491 91.4851C79.1846 91.5431 79.2296 91.5821 79.284 91.6023C79.3396 91.6212 79.3982 91.6307 79.4598 91.6307C79.5059 91.6307 79.5438 91.6283 79.5734 91.6236C79.603 91.6177 79.6267 91.6129 79.6444 91.6094L79.7297 91.9858C79.7013 91.9964 79.6616 92.0071 79.6107 92.0178C79.5598 92.0296 79.4953 92.0355 79.4172 92.0355C79.2988 92.0355 79.1828 92.0101 79.0692 91.9592C78.9567 91.9083 78.8632 91.8307 78.7886 91.7266C78.7152 91.6224 78.6785 91.491 78.6785 91.3324V88.6193ZM81.4244 92.0568C81.1617 92.0568 80.935 91.9988 80.7444 91.8828C80.555 91.7656 80.4088 91.6023 80.3058 91.3928C80.204 91.1821 80.1531 90.937 80.1531 90.6577C80.1531 90.3783 80.204 90.1321 80.3058 89.919C80.4088 89.7048 80.5521 89.5379 80.7355 89.4183C80.9202 89.2976 81.1356 89.2372 81.3818 89.2372C81.5239 89.2372 81.6642 89.2609 81.8026 89.3082C81.9411 89.3556 82.0672 89.4325 82.1808 89.5391C82.2945 89.6444 82.385 89.7841 82.4525 89.9581C82.52 90.1321 82.5537 90.3464 82.5537 90.6009V90.7784H80.4514V90.4162H82.1276C82.1276 90.2623 82.0968 90.125 82.0352 90.0043C81.9749 89.8835 81.8885 89.7882 81.776 89.7184C81.6647 89.6486 81.5334 89.6136 81.3818 89.6136C81.2149 89.6136 81.0705 89.6551 80.9486 89.7379C80.8279 89.8196 80.7349 89.9261 80.6698 90.0575C80.6047 90.1889 80.5722 90.3298 80.5722 90.4801V90.7216C80.5722 90.9276 80.6077 91.1022 80.6787 91.2454C80.7509 91.3874 80.8509 91.4957 80.9788 91.5703C81.1066 91.6437 81.2552 91.6804 81.4244 91.6804C81.5345 91.6804 81.634 91.665 81.7227 91.6342C81.8127 91.6023 81.8902 91.5549 81.9553 91.4922C82.0204 91.4283 82.0708 91.349 82.1063 91.2543L82.5111 91.3679C82.4685 91.5052 82.3969 91.6259 82.2963 91.7301C82.1956 91.8331 82.0713 91.9136 81.9234 91.9716C81.7754 92.0284 81.6091 92.0568 81.4244 92.0568ZM84.6542 92V88.3636H85.8829C86.1682 88.3636 86.4014 88.4151 86.5825 88.5181C86.7648 88.6199 86.8997 88.7578 86.9873 88.9318C87.0749 89.1058 87.1187 89.3 87.1187 89.5142C87.1187 89.7285 87.0749 89.9232 86.9873 90.0984C86.9009 90.2736 86.7671 90.4132 86.586 90.5174C86.4049 90.6204 86.1729 90.6719 85.89 90.6719H85.0093V90.2812H85.8758C86.0711 90.2812 86.228 90.2475 86.3463 90.18C86.4647 90.1126 86.5505 90.0214 86.6038 89.9066C86.6582 89.7906 86.6855 89.6598 86.6855 89.5142C86.6855 89.3686 86.6582 89.2384 86.6038 89.1236C86.5505 89.0088 86.4641 88.9188 86.3445 88.8537C86.225 88.7874 86.0664 88.7543 85.8687 88.7543H85.0945V92H84.6542ZM88.5738 92.0639C88.401 92.0639 88.2441 92.0314 88.1032 91.9663C87.9624 91.9 87.8505 91.8047 87.7677 91.6804C87.6848 91.5549 87.6434 91.4034 87.6434 91.2259C87.6434 91.0696 87.6742 90.9429 87.7357 90.8459C87.7973 90.7476 87.8795 90.6707 87.9825 90.6151C88.0855 90.5594 88.1991 90.518 88.3234 90.4908C88.4489 90.4624 88.575 90.4399 88.7016 90.4233C88.8673 90.402 89.0017 90.386 89.1047 90.3754C89.2088 90.3635 89.2846 90.344 89.3319 90.3168C89.3805 90.2895 89.4047 90.2422 89.4047 90.1747V90.1605C89.4047 89.9853 89.3568 89.8492 89.2609 89.7521C89.1662 89.6551 89.0224 89.6065 88.8295 89.6065C88.6294 89.6065 88.4726 89.6503 88.3589 89.7379C88.2453 89.8255 88.1654 89.919 88.1192 90.0185L87.7215 89.8764C87.7925 89.7107 87.8872 89.5817 88.0056 89.4893C88.1251 89.3958 88.2554 89.3307 88.3962 89.294C88.5383 89.2562 88.6779 89.2372 88.8153 89.2372C88.9028 89.2372 89.0035 89.2479 89.1171 89.2692C89.2319 89.2893 89.3426 89.3313 89.4491 89.3952C89.5568 89.4592 89.6462 89.5556 89.7172 89.6847C89.7883 89.8137 89.8238 89.9865 89.8238 90.2031V92H89.4047V91.6307H89.3834C89.355 91.6899 89.3077 91.7532 89.2414 91.8207C89.1751 91.8881 89.0869 91.9455 88.9768 91.9929C88.8667 92.0402 88.7324 92.0639 88.5738 92.0639ZM88.6377 91.6875C88.8034 91.6875 88.9431 91.6549 89.0567 91.5898C89.1715 91.5247 89.258 91.4407 89.316 91.3377C89.3751 91.2347 89.4047 91.1264 89.4047 91.0128V90.6293C89.387 90.6506 89.3479 90.6701 89.2876 90.6879C89.2284 90.7044 89.1597 90.7192 89.0816 90.7322C89.0046 90.7441 88.9295 90.7547 88.8561 90.7642C88.7839 90.7725 88.7253 90.7796 88.6803 90.7855C88.5714 90.7997 88.4696 90.8228 88.3749 90.8548C88.2814 90.8855 88.2056 90.9323 88.1476 90.995C88.0908 91.0566 88.0624 91.1406 88.0624 91.2472C88.0624 91.3928 88.1163 91.5028 88.224 91.5774C88.3329 91.6508 88.4708 91.6875 88.6377 91.6875ZM90.7608 93.0227C90.6898 93.0227 90.6265 93.0168 90.5708 93.005C90.5152 92.9943 90.4767 92.9837 90.4554 92.973L90.562 92.6037C90.6638 92.6297 90.7537 92.6392 90.8319 92.6321C90.91 92.625 90.9792 92.5901 91.0396 92.5273C91.1011 92.4658 91.1574 92.3658 91.2083 92.2273L91.2864 92.0142L90.2779 89.2727H90.7324L91.4853 91.446H91.5137L92.2665 89.2727H92.7211L91.5634 92.3977C91.5113 92.5386 91.4468 92.6552 91.3699 92.7475C91.2929 92.841 91.2035 92.9103 91.1017 92.9553C91.0011 93.0002 90.8875 93.0227 90.7608 93.0227ZM93.2741 92V89.2727H93.679V89.6989H93.7145C93.7713 89.5533 93.863 89.4402 93.9897 89.3597C94.1164 89.2781 94.2685 89.2372 94.446 89.2372C94.6259 89.2372 94.7757 89.2781 94.8952 89.3597C95.016 89.4402 95.1101 89.5533 95.1776 89.6989H95.206C95.2758 89.558 95.3806 89.4461 95.5202 89.3633C95.6599 89.2792 95.8274 89.2372 96.0227 89.2372C96.2666 89.2372 96.466 89.3136 96.6211 89.4663C96.7762 89.6178 96.8537 89.8539 96.8537 90.1747V92H96.4347V90.1747C96.4347 89.9735 96.3796 89.8297 96.2695 89.7433C96.1594 89.6568 96.0298 89.6136 95.8807 89.6136C95.6889 89.6136 95.5404 89.6716 95.435 89.7876C95.3297 89.9025 95.277 90.0481 95.277 90.2244V92H94.8509V90.1321C94.8509 89.977 94.8005 89.8522 94.6999 89.7575C94.5993 89.6616 94.4697 89.6136 94.3111 89.6136C94.2022 89.6136 94.1004 89.6426 94.0057 89.7006C93.9122 89.7586 93.8364 89.8391 93.7784 89.9421C93.7216 90.0439 93.6932 90.1617 93.6932 90.2955V92H93.2741ZM98.7633 92.0568C98.5005 92.0568 98.2739 91.9988 98.0833 91.8828C97.8939 91.7656 97.7477 91.6023 97.6447 91.3928C97.5429 91.1821 97.492 90.937 97.492 90.6577C97.492 90.3783 97.5429 90.1321 97.6447 89.919C97.7477 89.7048 97.8909 89.5379 98.0744 89.4183C98.2591 89.2976 98.4745 89.2372 98.7207 89.2372C98.8627 89.2372 99.003 89.2609 99.1415 89.3082C99.28 89.3556 99.4061 89.4325 99.5197 89.5391C99.6333 89.6444 99.7239 89.7841 99.7914 89.9581C99.8588 90.1321 99.8926 90.3464 99.8926 90.6009V90.7784H97.7903V90.4162H99.4664C99.4664 90.2623 99.4357 90.125 99.3741 90.0043C99.3137 89.8835 99.2273 89.7882 99.1149 89.7184C99.0036 89.6486 98.8722 89.6136 98.7207 89.6136C98.5538 89.6136 98.4094 89.6551 98.2875 89.7379C98.1667 89.8196 98.0738 89.9261 98.0087 90.0575C97.9436 90.1889 97.911 90.3298 97.911 90.4801V90.7216C97.911 90.9276 97.9466 91.1022 98.0176 91.2454C98.0898 91.3874 98.1898 91.4957 98.3176 91.5703C98.4455 91.6437 98.594 91.6804 98.7633 91.6804C98.8734 91.6804 98.9728 91.665 99.0616 91.6342C99.1516 91.6023 99.2291 91.5549 99.2942 91.4922C99.3593 91.4283 99.4096 91.349 99.4451 91.2543L99.85 91.3679C99.8074 91.5052 99.7357 91.6259 99.6351 91.7301C99.5345 91.8331 99.4102 91.9136 99.2623 91.9716C99.1143 92.0284 98.948 92.0568 98.7633 92.0568ZM100.949 90.3594V92H100.53V89.2727H100.935V89.6989H100.97C101.034 89.5604 101.131 89.4491 101.262 89.3651C101.392 89.2798 101.56 89.2372 101.766 89.2372C101.95 89.2372 102.112 89.2751 102.251 89.3509C102.389 89.4254 102.497 89.5391 102.574 89.6918C102.651 89.8433 102.689 90.035 102.689 90.267V92H102.27V90.2955C102.27 90.0812 102.214 89.9143 102.103 89.7947C101.992 89.674 101.839 89.6136 101.645 89.6136C101.511 89.6136 101.392 89.6426 101.286 89.7006C101.182 89.7586 101.1 89.8433 101.04 89.9545C100.979 90.0658 100.949 90.2008 100.949 90.3594ZM104.641 89.2727V89.6278H103.228V89.2727H104.641ZM103.639 88.6193H104.059V91.2188C104.059 91.3371 104.076 91.4259 104.11 91.4851C104.146 91.5431 104.19 91.5821 104.245 91.6023C104.301 91.6212 104.359 91.6307 104.421 91.6307C104.467 91.6307 104.505 91.6283 104.534 91.6236C104.564 91.6177 104.588 91.6129 104.605 91.6094L104.691 91.9858C104.662 91.9964 104.623 92.0071 104.572 92.0178C104.521 92.0296 104.456 92.0355 104.378 92.0355C104.26 92.0355 104.144 92.0101 104.03 91.9592C103.918 91.9083 103.824 91.8307 103.75 91.7266C103.676 91.6224 103.639 91.491 103.639 91.3324V88.6193Z" fill="white"/>
</g>
<defs>
<linearGradient id="paint0_linear_2_2" x1="89.348" y1="8.18182" x2="97.7321" y2="98.6778" gradientUnits="userSpaceOnUse">
<stop stop-color="#2964BB" stop-opacity="0.6"/>
<stop offset="1" stop-color="#4F4F4F" stop-opacity="0.52"/>
</linearGradient>
<linearGradient id="paint1_linear_2_2" x1="91.3359" y1="106.375" x2="90.5943" y2="3.80276" gradientUnits="userSpaceOnUse">
<stop stop-color="#00349A"/>
<stop offset="0.411458" stop-color="#AFC1FF" stop-opacity="0.59"/>
<stop offset="1" stop-color="#708AE6" stop-opacity="0"/>
</linearGradient>
<linearGradient id="paint2_linear_2_2" x1="89.348" y1="8.18182" x2="97.7321" y2="98.6778" gradientUnits="userSpaceOnUse">
<stop stop-color="#2964BB" stop-opacity="0.6"/>
<stop offset="0.944269" stop-color="#4F4F4F" stop-opacity="0"/>
</linearGradient>
<linearGradient id="paint3_linear_2_2" x1="139.523" y1="108.935" x2="22.5213" y2="87.7596" gradientUnits="userSpaceOnUse">
<stop stop-color="#455575"/>
<stop offset="0.411458" stop-color="#AFC1FF" stop-opacity="0.59"/>
<stop offset="1" stop-color="#708AE6" stop-opacity="0.44"/>
</linearGradient>
<linearGradient id="paint4_linear_2_2" x1="84.5767" y1="15.2727" x2="89.7662" y2="47.7796" gradientUnits="userSpaceOnUse">
<stop stop-color="#4886FF" stop-opacity="0.95"/>
<stop offset="1" stop-color="#4175D9" stop-opacity="0.78"/>
</linearGradient>
<linearGradient id="paint5_linear_2_2" x1="150.233" y1="28.574" x2="118.053" y2="31.4875" gradientUnits="userSpaceOnUse">
<stop stop-color="white"/>
<stop offset="1" stop-color="#EFEFEF" stop-opacity="0"/>
</linearGradient>
<linearGradient id="paint6_linear_2_2" x1="37.1209" y1="15.2727" x2="52.0525" y2="37.913" gradientUnits="userSpaceOnUse">
<stop stop-color="white" stop-opacity="0.5"/>
<stop offset="1" stop-color="white" stop-opacity="0"/>
</linearGradient>
<linearGradient id="paint7_linear_2_2" x1="91.7857" y1="15.4546" x2="130.814" y2="15.1505" gradientUnits="userSpaceOnUse">
<stop stop-color="#87A9EA"/>
<stop offset="1" stop-color="#83ADFF" stop-opacity="0"/>
</linearGradient>
<linearGradient id="paint8_linear_2_2" x1="37.1209" y1="60.0845" x2="127.523" y2="60.0845" gradientUnits="userSpaceOnUse">
<stop stop-color="#445266"/>
<stop offset="1" stop-color="#445266" stop-opacity="0.64"/>
</linearGradient>
<linearGradient id="paint9_linear_2_2" x1="150.233" y1="59.3435" x2="121.514" y2="69.687" gradientUnits="userSpaceOnUse">
<stop stop-color="white"/>
<stop offset="1" stop-color="#EFEFEF" stop-opacity="0"/>
</linearGradient>
<linearGradient id="paint10_linear_2_2" x1="37.1209" y1="56" x2="38.4385" y2="63.9479" gradientUnits="userSpaceOnUse">
<stop stop-color="white" stop-opacity="0.5"/>
<stop offset="1" stop-color="white" stop-opacity="0"/>
</linearGradient>
<linearGradient id="paint11_linear_2_2" x1="37.1209" y1="75.9027" x2="127.523" y2="75.9027" gradientUnits="userSpaceOnUse">
<stop stop-color="#445266"/>
<stop offset="1" stop-color="#445266" stop-opacity="0.64"/>
</linearGradient>
<linearGradient id="paint12_linear_2_2" x1="150.233" y1="75.1616" x2="121.514" y2="85.5052" gradientUnits="userSpaceOnUse">
<stop stop-color="white"/>
<stop offset="1" stop-color="#EFEFEF" stop-opacity="0"/>
</linearGradient>
<linearGradient id="paint13_linear_2_2" x1="37.1209" y1="71.8182" x2="38.4385" y2="79.7661" gradientUnits="userSpaceOnUse">
<stop stop-color="white" stop-opacity="0.5"/>
<stop offset="1" stop-color="white" stop-opacity="0"/>
</linearGradient>
<linearGradient id="paint14_linear_2_2" x1="37.3319" y1="69.704" x2="57.0195" y2="69.704" gradientUnits="userSpaceOnUse">
<stop stop-color="#445266"/>
<stop offset="1" stop-color="#445266" stop-opacity="0.64"/>
</linearGradient>
<linearGradient id="paint15_linear_2_2" x1="36.2773" y1="53.5222" x2="56.9693" y2="53.5222" gradientUnits="userSpaceOnUse">
<stop stop-color="#445266"/>
<stop offset="1" stop-color="#445266" stop-opacity="0.64"/>
</linearGradient>
<linearGradient id="paint16_linear_2_2" x1="37.3319" y1="89.5011" x2="127.533" y2="89.5011" gradientUnits="userSpaceOnUse">
<stop stop-color="#04234F"/>
<stop offset="1" stop-color="#042655" stop-opacity="0.64"/>
</linearGradient>
<linearGradient id="paint17_linear_2_2" x1="28.8953" y1="-8.20279e-07" x2="41.1542" y2="37.5281" gradientUnits="userSpaceOnUse">
<stop stop-color="#02102D"/>
<stop offset="1" stop-color="#010815"/>
</linearGradient>
<linearGradient id="paint18_linear_2_2" x1="68.8727" y1="16.5722" x2="49.1564" y2="17.4445" gradientUnits="userSpaceOnUse">
<stop stop-color="white"/>
<stop offset="1" stop-color="#EFEFEF" stop-opacity="0"/>
</linearGradient>
<linearGradient id="paint19_linear_2_2" x1="7.5566e-06" y1="-1.37671e-06" x2="19.3621" y2="14.3477" gradientUnits="userSpaceOnUse">
<stop stop-color="white" stop-opacity="0.5"/>
<stop offset="1" stop-color="white" stop-opacity="0"/>
</linearGradient>
<clipPath id="clip0_2_2">
<rect width="143" height="100" fill="white"/>
</clipPath>
</defs>
</svg>
