<svg width="511" height="349" viewBox="0 0 511 349" fill="none" xmlns="http://www.w3.org/2000/svg">
<path d="M208.669 5.5H14.3307C10.8004 5.5 7.93848 8.3619 7.93848 11.8922V23.8923C7.93848 27.4226 10.8004 30.2845 14.3307 30.2845H208.669C212.2 30.2845 215.061 27.4226 215.061 23.8923V11.8922C215.061 8.3619 212.2 5.5 208.669 5.5Z" fill="#FFF0E4"/>
<path d="M20.6137 20.8926H21.7701V14.7225H20.6137V20.8926ZM24.6838 20.9789C25.8401 20.9789 26.4873 20.4525 26.4873 19.5377C26.4873 18.5799 25.8574 18.321 24.7959 18.157C24.0797 18.0362 23.864 17.9068 23.864 17.5788C23.864 17.2595 24.1315 17.0438 24.5802 17.0438C25.0635 17.0438 25.2965 17.2337 25.3827 17.6479H26.3493C26.2371 16.6296 25.5036 16.2844 24.5802 16.2844C23.7345 16.2844 22.8888 16.7331 22.8888 17.6392C22.8888 18.4849 23.3289 18.8215 24.5198 19.0113C25.1843 19.1235 25.4863 19.2616 25.4863 19.6327C25.4863 20.0124 25.236 20.2108 24.6751 20.2108C24.0624 20.2108 23.8294 19.9433 23.7777 19.486H22.7939C22.837 20.4438 23.5188 20.9789 24.6838 20.9789ZM28.948 20.9789C30.1043 20.9789 30.7515 20.4525 30.7515 19.5377C30.7515 18.5799 30.1216 18.321 29.0601 18.157C28.3439 18.0362 28.1281 17.9068 28.1281 17.5788C28.1281 17.2595 28.3957 17.0438 28.8444 17.0438C29.3277 17.0438 29.5606 17.2337 29.6469 17.6479H30.6134C30.5013 16.6296 29.7678 16.2844 28.8444 16.2844C27.9987 16.2844 27.153 16.7331 27.153 17.6392C27.153 18.4849 27.5931 18.8215 28.784 19.0113C29.4485 19.1235 29.7505 19.2616 29.7505 19.6327C29.7505 20.0124 29.5002 20.2108 28.9393 20.2108C28.3266 20.2108 28.0936 19.9433 28.0419 19.486H27.0581C27.1012 20.4438 27.783 20.9789 28.948 20.9789ZM33.1776 20.9789C33.9111 20.9789 34.3858 20.6251 34.6101 20.185V20.8926H35.6543V16.3793H34.6101V19.0631C34.6101 19.7794 34.1182 20.1418 33.5573 20.1418C32.9533 20.1418 32.6685 19.8311 32.6685 19.1494V16.3793H31.6243V19.2702C31.6243 20.4697 32.2888 20.9789 33.1776 20.9789ZM38.8772 20.9789C40.0335 20.9789 40.8015 20.4611 40.9482 19.5119H39.9386C39.8609 19.952 39.533 20.2022 38.903 20.2022C38.1264 20.2022 37.6949 19.719 37.6604 18.8646H40.9655V18.5626C40.9655 16.9489 39.9558 16.2844 38.834 16.2844C37.5482 16.2844 36.5903 17.2164 36.5903 18.6144V18.6834C36.5903 20.1073 37.5482 20.9789 38.8772 20.9789ZM37.6777 18.1656C37.7812 17.4667 38.2041 17.0438 38.834 17.0438C39.4812 17.0438 39.8782 17.389 39.93 18.1656H37.6777ZM43.485 20.9789C44.6413 20.9789 45.2886 20.4525 45.2886 19.5377C45.2886 18.5799 44.6586 18.321 43.5972 18.157C42.8809 18.0362 42.6652 17.9068 42.6652 17.5788C42.6652 17.2595 42.9327 17.0438 43.3814 17.0438C43.8647 17.0438 44.0977 17.2337 44.184 17.6479H45.1505C45.0383 16.6296 44.3048 16.2844 43.3814 16.2844C42.5357 16.2844 41.69 16.7331 41.69 17.6392C41.69 18.4849 42.1302 18.8215 43.321 19.0113C43.9855 19.1235 44.2875 19.2616 44.2875 19.6327C44.2875 20.0124 44.0373 20.2108 43.4764 20.2108C42.8637 20.2108 42.6307 19.9433 42.5789 19.486H41.5951C41.6383 20.4438 42.32 20.9789 43.485 20.9789ZM48.2608 20.8926H49.3049V18.5453C49.3049 17.5875 49.8572 17.2941 50.7719 17.2854V16.3103C50.0125 16.3189 49.5897 16.6555 49.3049 17.225V16.3793H48.2608V20.8926ZM53.5912 20.9789C54.7475 20.9789 55.5155 20.4611 55.6623 19.5119H54.6526C54.5749 19.952 54.247 20.2022 53.6171 20.2022C52.8404 20.2022 52.4089 19.719 52.3744 18.8646H55.6795V18.5626C55.6795 16.9489 54.6699 16.2844 53.548 16.2844C52.2622 16.2844 51.3043 17.2164 51.3043 18.6144V18.6834C51.3043 20.1073 52.2622 20.9789 53.5912 20.9789ZM52.3917 18.1656C52.4952 17.4667 52.9181 17.0438 53.548 17.0438C54.1952 17.0438 54.5922 17.389 54.644 18.1656H52.3917ZM58.199 20.9789C59.3553 20.9789 60.0026 20.4525 60.0026 19.5377C60.0026 18.5799 59.3726 18.321 58.3112 18.157C57.5949 18.0362 57.3792 17.9068 57.3792 17.5788C57.3792 17.2595 57.6467 17.0438 58.0954 17.0438C58.5787 17.0438 58.8117 17.2337 58.898 17.6479H59.8645C59.7523 16.6296 59.0188 16.2844 58.0954 16.2844C57.2497 16.2844 56.4041 16.7331 56.4041 17.6392C56.4041 18.4849 56.8442 18.8215 58.035 19.0113C58.6995 19.1235 59.0015 19.2616 59.0015 19.6327C59.0015 20.0124 58.7513 20.2108 58.1904 20.2108C57.5777 20.2108 57.3447 19.9433 57.2929 19.486H56.3091C56.3523 20.4438 57.034 20.9789 58.199 20.9789ZM62.9378 20.1677C62.1439 20.1677 61.6865 19.5895 61.6865 18.6662V18.5971C61.6865 17.6651 62.1612 17.1042 62.9378 17.1042C63.7145 17.1042 64.1805 17.6738 64.1805 18.6058V18.6662C64.1805 19.5895 63.7145 20.1677 62.9378 20.1677ZM62.9292 20.9789C64.2581 20.9789 65.2505 20.0641 65.2505 18.6575V18.5885C65.2505 17.2078 64.2581 16.2844 62.9378 16.2844C61.6089 16.2844 60.6165 17.2164 60.6165 18.6144V18.6834C60.6165 20.0555 61.6002 20.9789 62.9292 20.9789ZM66.2199 20.8926H67.264V14.291H66.2199V20.8926ZM69.719 20.8926H70.9358L72.5667 16.3793H71.5398L70.3748 19.8225L69.1926 16.3793H68.0708L69.719 20.8926ZM75.1565 20.9789C76.3129 20.9789 77.0809 20.4611 77.2276 19.5119H76.218C76.1403 19.952 75.8124 20.2022 75.1824 20.2022C74.4058 20.2022 73.9743 19.719 73.9398 18.8646H77.2449V18.5626C77.2449 16.9489 76.2352 16.2844 75.1134 16.2844C73.8276 16.2844 72.8697 17.2164 72.8697 18.6144V18.6834C72.8697 20.1073 73.8276 20.9789 75.1565 20.9789ZM73.957 18.1656C74.0606 17.4667 74.4834 17.0438 75.1134 17.0438C75.7606 17.0438 76.1576 17.389 76.2093 18.1656H73.957ZM79.8689 20.9789C80.5334 20.9789 81.1116 20.5819 81.3532 20.1332V20.8926H82.3974V14.291H81.3532V17.0697C81.103 16.621 80.6456 16.2844 79.9121 16.2844C78.7385 16.2844 77.8841 17.1991 77.8841 18.6403V18.7093C77.8841 20.1763 78.7385 20.9789 79.8689 20.9789ZM80.1278 20.1504C79.4547 20.1504 78.9542 19.6758 78.9542 18.6834V18.6144C78.9542 17.6392 79.4029 17.1042 80.171 17.1042C80.9304 17.1042 81.3877 17.5961 81.3877 18.5885V18.6575C81.3877 19.6672 80.8527 20.1504 80.1278 20.1504Z" fill="#B0520E"/>
<path d="M189.842 20.8926H194.304V20.0037H191.68L193.052 18.6662C193.786 17.9585 194.26 17.2595 194.26 16.457C194.26 15.3697 193.501 14.6362 192.224 14.6362C190.921 14.6362 190.11 15.4128 190.032 16.759H191.085C191.188 15.8875 191.577 15.5336 192.189 15.5336C192.785 15.5336 193.113 15.8961 193.113 16.4743C193.113 17.0611 192.759 17.6047 192.172 18.2261L189.842 20.6855V20.8926ZM194.734 22.1697H195.614L198.22 14.1961H197.332L194.734 22.1697ZM200.645 20.9789C202.061 20.9789 202.958 20.2713 202.958 19.1322C202.958 18.3124 202.483 17.8032 201.767 17.6392C202.363 17.4149 202.768 16.992 202.768 16.293C202.768 15.3783 202.017 14.6362 200.732 14.6362C199.411 14.6362 198.609 15.456 198.548 16.526H199.567C199.636 15.9047 200.059 15.5078 200.714 15.5078C201.353 15.5078 201.672 15.8788 201.672 16.3793C201.672 16.9575 201.353 17.2854 200.645 17.2854H200.205V18.1052H200.68C201.431 18.1052 201.793 18.4418 201.793 19.1149C201.793 19.7276 201.422 20.1159 200.619 20.1159C199.791 20.1159 199.429 19.6327 199.368 18.9855H198.324C198.376 20.1677 199.178 20.9789 200.645 20.9789Z" fill="#B0520E"/>
<g filter="url(#filter0_d_29_234)">
<path d="M207.352 32.7969H15.6488C12.6982 32.7969 10.3062 35.1889 10.3062 38.1395V68.2768C10.3062 71.2275 12.6982 73.6194 15.6488 73.6194H207.352C210.302 73.6194 212.694 71.2275 212.694 68.2768V38.1395C212.694 35.1889 210.302 32.7969 207.352 32.7969Z" fill="white"/>
<path d="M30.7186 64.191C36.7845 64.191 41.7018 59.2737 41.7018 53.2078C41.7018 47.142 36.7845 42.2246 30.7186 42.2246C24.6528 42.2246 19.7354 47.142 19.7354 53.2078C19.7354 59.2737 24.6528 64.191 30.7186 64.191Z" fill="#EAECF0"/>
<path fill-rule="evenodd" clip-rule="evenodd" d="M30.4891 58.9528C33.7888 58.9528 36.4635 56.278 36.4635 52.9783C36.4635 49.6787 33.7888 47.0039 30.4891 47.0039C27.1894 47.0039 24.5146 49.6787 24.5146 52.9783C24.5146 56.278 27.1894 58.9528 30.4891 58.9528ZM32.2814 51.7835C32.2814 52.2588 32.0926 52.7147 31.7565 53.0508C31.4203 53.387 30.9644 53.5758 30.4891 53.5758C30.0137 53.5758 29.5578 53.387 29.2217 53.0508C28.8856 52.7147 28.6968 52.2588 28.6968 51.7835C28.6968 51.3081 28.8856 50.8522 29.2217 50.5161C29.5578 50.18 30.0137 49.9911 30.4891 49.9911C30.9644 49.9911 31.4203 50.18 31.7565 50.5161C32.0926 50.8522 32.2814 51.3081 32.2814 51.7835ZM26.9044 55.9656C27.3214 55.4087 27.8626 54.9567 28.4849 54.6456C29.1071 54.3345 29.7934 54.1727 30.4891 54.1732C31.1848 54.1727 31.8711 54.3345 32.4933 54.6456C33.1156 54.9567 33.6567 55.4087 34.0738 55.9656C33.6567 56.5225 33.1156 56.9744 32.4933 57.2855C31.8711 57.5967 31.1848 57.7584 30.4891 57.7579C29.7934 57.7584 29.1071 57.5967 28.4849 57.2855C27.8626 56.9744 27.3214 56.5225 26.9044 55.9656Z" fill="#98A2B3"/>
<path d="M203.266 53.2081C203.266 47.2688 198.451 42.4541 192.512 42.4541C186.573 42.4541 181.758 47.2688 181.758 53.2081C181.758 59.1474 186.573 63.9621 192.512 63.9621C198.451 63.9621 203.266 59.1474 203.266 53.2081Z" fill="#FFC5C5"/>
<path d="M192.441 52.1428C192.441 52.285 192.555 52.3968 192.695 52.3968C192.984 52.3968 193.218 52.6329 193.218 52.9198C193.218 53.0595 193.332 53.1737 193.472 53.1737C193.611 53.1737 193.726 53.0595 193.726 52.9198C193.726 52.3511 193.264 51.8889 192.695 51.8889C192.555 51.8889 192.441 52.0032 192.441 52.1428ZM196.575 53.1737C196.717 53.1737 196.829 53.0595 196.829 52.9198C196.829 50.6397 194.975 48.7861 192.695 48.7861C192.555 48.7861 192.441 48.9004 192.441 49.04C192.441 49.1797 192.555 49.294 192.695 49.294C194.696 49.294 196.321 50.9215 196.321 52.9198C196.321 53.0595 196.435 53.1737 196.575 53.1737Z" fill="#9D3B3B"/>
<path d="M194.769 52.9185C194.769 53.0581 194.883 53.1724 195.023 53.1724C195.163 53.1724 195.277 53.0581 195.277 52.9185C195.277 51.494 194.119 50.3362 192.695 50.3362C192.555 50.3362 192.441 50.4505 192.441 50.5901C192.441 50.7323 192.555 50.844 192.695 50.844C193.84 50.844 194.769 51.7759 194.769 52.9185ZM192.695 47.2334C192.555 47.2334 192.441 47.3477 192.441 47.4873C192.441 47.627 192.555 47.7412 192.695 47.7412C195.551 47.7412 197.874 50.0645 197.874 52.9185C197.874 53.0581 197.986 53.1724 198.128 53.1724C198.268 53.1724 198.382 53.0581 198.382 52.9185C198.382 49.7827 195.83 47.2334 192.695 47.2334ZM195.175 55.5947L194.843 55.775C194.282 56.0822 193.571 55.9781 193.116 55.5236L190.435 52.8423C189.98 52.3878 189.876 51.6769 190.183 51.1132L190.364 50.7831C190.567 50.4073 190.64 49.9858 190.58 49.5643C190.522 49.1437 190.327 48.7537 190.026 48.4547C189.655 48.084 189.163 47.8809 188.637 47.8809C188.112 47.8809 187.616 48.084 187.246 48.4547L187.116 48.5867C186.431 49.2723 186.352 50.453 186.893 51.9155C187.403 53.312 188.431 54.8254 189.782 56.1762C191.841 58.2354 194.134 59.4212 195.78 59.4212C196.43 59.4212 196.981 59.2358 197.372 58.8448L197.504 58.7128C197.687 58.5301 197.832 58.3132 197.93 58.0744C198.029 57.8357 198.08 57.5798 198.08 57.3213C198.077 56.8009 197.87 56.3024 197.504 55.9324C196.892 55.3205 195.935 55.1834 195.175 55.5947Z" fill="#9D3B3B"/>
<path d="M207.352 32.954H15.6487C12.7849 32.954 10.4633 35.2756 10.4633 38.1394V68.2769C10.4633 71.1407 12.7849 73.4623 15.6487 73.4623H207.352C210.216 73.4623 212.537 71.1407 212.537 68.2769V38.1394C212.537 35.2756 210.216 32.954 207.352 32.954Z" stroke="#DDDDDD" stroke-width="0.314269"/>
</g>
<g filter="url(#filter1_d_29_234)">
<path d="M197.797 76.1328H25.2026C23.1342 76.1328 21.4575 77.8095 21.4575 79.8779V100.029C21.4575 102.097 23.1342 103.774 25.2026 103.774H197.797C199.866 103.774 201.542 102.097 201.542 100.029V79.8779C201.542 77.8095 199.866 76.1328 197.797 76.1328Z" fill="white"/>
<path d="M197.504 76.1328H25.4957C23.2655 76.1328 21.4575 77.9408 21.4575 80.1711V99.7355C21.4575 101.966 23.2655 103.774 25.4957 103.774H197.504C199.735 103.774 201.542 101.966 201.542 99.7355V80.1711C201.542 77.9408 199.735 76.1328 197.504 76.1328Z" fill="white"/>
<path d="M38.3705 97.3943C42.6226 97.3943 46.0696 93.9473 46.0696 89.6952C46.0696 85.4431 42.6226 81.9961 38.3705 81.9961C34.1184 81.9961 30.6714 85.4431 30.6714 89.6952C30.6714 93.9473 34.1184 97.3943 38.3705 97.3943Z" fill="#F9FAFB"/>
<path d="M141.234 86.1846H54.1236C52.7358 86.1846 51.6108 87.3097 51.6108 88.6974V92.0479C51.6108 93.4356 52.7358 94.5607 54.1236 94.5607H141.234C142.622 94.5607 143.747 93.4356 143.747 92.0479V88.6974C143.747 87.3097 142.622 86.1846 141.234 86.1846Z" fill="#F6F7F8"/>
<path d="M193.166 86.1846H174.739C173.351 86.1846 172.226 87.3097 172.226 88.6974V92.0479C172.226 93.4356 173.351 94.5607 174.739 94.5607H193.166C194.554 94.5607 195.679 93.4356 195.679 92.0479V88.6974C195.679 87.3097 194.554 86.1846 193.166 86.1846Z" fill="#F6F7F8"/>
<path d="M197.797 76.243H25.2026C23.1951 76.243 21.5677 77.8705 21.5677 79.878V100.029C21.5677 102.036 23.1951 103.664 25.2026 103.664H197.797C199.804 103.664 201.432 102.036 201.432 100.029V79.878C201.432 77.8705 199.804 76.243 197.797 76.243Z" stroke="#DDDDDD" stroke-width="0.220299"/>
</g>
<path d="M51.5852 60V46.9091H59.4858V48.3153H53.1705V52.7386H59.0767V54.1449H53.1705V58.5938H59.5881V60H51.5852ZM63.647 46.9091V60H62.1385V46.9091H63.647ZM70.5265 60.2045C69.5804 60.2045 68.7644 59.9957 68.0783 59.5781C67.3965 59.1562 66.8702 58.5682 66.4995 57.8139C66.133 57.0554 65.9498 56.1733 65.9498 55.1676C65.9498 54.1619 66.133 53.2756 66.4995 52.5085C66.8702 51.7372 67.3858 51.1364 68.0463 50.706C68.7111 50.2713 69.4867 50.054 70.373 50.054C70.8844 50.054 71.3894 50.1392 71.888 50.3097C72.3865 50.4801 72.8404 50.7571 73.2495 51.1406C73.6586 51.5199 73.9846 52.0227 74.2275 52.6491C74.4703 53.2756 74.5918 54.0469 74.5918 54.9631V55.6023H67.0236V54.2983H73.0577C73.0577 53.7443 72.9469 53.25 72.7253 52.8153C72.508 52.3807 72.1969 52.0376 71.7921 51.7862C71.3915 51.5348 70.9185 51.4091 70.373 51.4091C69.7722 51.4091 69.2523 51.5582 68.8134 51.8565C68.3787 52.1506 68.0442 52.5341 67.8098 53.0071C67.5755 53.4801 67.4583 53.9872 67.4583 54.5284V55.3977C67.4583 56.1392 67.5861 56.7678 67.8418 57.2834C68.1017 57.7947 68.4618 58.1847 68.9221 58.4531C69.3823 58.7173 69.9171 58.8494 70.5265 58.8494C70.9228 58.8494 71.2807 58.794 71.6003 58.6832C71.9242 58.5682 72.2033 58.3977 72.4377 58.1719C72.6721 57.9418 72.8532 57.6562 72.981 57.3153L74.4384 57.7244C74.285 58.2188 74.0272 58.6534 73.665 59.0284C73.3027 59.3991 72.8553 59.6889 72.3226 59.8977C71.79 60.1023 71.1912 60.2045 70.5265 60.2045ZM79.7757 60.2301C79.1536 60.2301 78.589 60.1129 78.0819 59.8786C77.5748 59.6399 77.1721 59.2969 76.8738 58.8494C76.5755 58.3977 76.4263 57.8523 76.4263 57.2131C76.4263 56.6506 76.5371 56.1946 76.7587 55.8452C76.9803 55.4915 77.2765 55.2145 77.6472 55.0142C78.0179 54.8139 78.427 54.6648 78.8745 54.5668C79.3262 54.4645 79.78 54.3835 80.236 54.3239C80.8326 54.2472 81.3162 54.1896 81.687 54.1513C82.062 54.1087 82.3347 54.0384 82.5051 53.9403C82.6799 53.8423 82.7672 53.6719 82.7672 53.429V53.3778C82.7672 52.7472 82.5946 52.2571 82.2495 51.9077C81.9086 51.5582 81.3908 51.3835 80.6962 51.3835C79.976 51.3835 79.4114 51.5412 79.0023 51.8565C78.5932 52.1719 78.3056 52.5085 78.1394 52.8665L76.7076 52.3551C76.9632 51.7585 77.3042 51.294 77.7303 50.9616C78.1607 50.625 78.6294 50.3906 79.1365 50.2585C79.6479 50.1222 80.1507 50.054 80.6451 50.054C80.9604 50.054 81.3226 50.0923 81.7317 50.169C82.1451 50.2415 82.5435 50.3928 82.927 50.6229C83.3148 50.853 83.6365 51.2003 83.8922 51.6648C84.1479 52.1293 84.2757 52.7514 84.2757 53.5312V60H82.7672V58.6705H82.6905C82.5882 58.8835 82.4178 59.1115 82.1792 59.3544C81.9405 59.5973 81.623 59.804 81.2267 59.9744C80.8304 60.1449 80.3468 60.2301 79.7757 60.2301ZM80.0059 58.875C80.6025 58.875 81.1053 58.7578 81.5144 58.5234C81.9277 58.2891 82.2388 57.9865 82.4476 57.6158C82.6607 57.245 82.7672 56.8551 82.7672 56.446V55.0653C82.7033 55.142 82.5627 55.2124 82.3453 55.2763C82.1323 55.3359 81.8851 55.3892 81.6039 55.4361C81.3269 55.4787 81.0563 55.517 80.7921 55.5511C80.5321 55.581 80.3212 55.6065 80.1593 55.6278C79.7672 55.679 79.4007 55.7621 79.0598 55.8771C78.7232 55.9879 78.4505 56.1562 78.2417 56.3821C78.0371 56.6037 77.9348 56.9062 77.9348 57.2898C77.9348 57.8139 78.1287 58.2102 78.5165 58.4787C78.9086 58.7429 79.405 58.875 80.0059 58.875ZM88.5376 54.0938V60H87.0291V50.1818H88.4865V51.7159H88.6143C88.8445 51.2173 89.1939 50.8168 89.6626 50.5142C90.1314 50.2074 90.7365 50.054 91.478 50.054C92.1428 50.054 92.7244 50.1903 93.223 50.4631C93.7216 50.7315 94.1094 51.1406 94.3864 51.6903C94.6634 52.2358 94.8018 52.9261 94.8018 53.7614V60H93.2933V53.8636C93.2933 53.0923 93.093 52.4915 92.6925 52.0611C92.2919 51.6264 91.7422 51.4091 91.0433 51.4091C90.5618 51.4091 90.1314 51.5135 89.7521 51.7223C89.3771 51.9311 89.081 52.2358 88.8636 52.6364C88.6463 53.0369 88.5376 53.5227 88.5376 54.0938ZM101.547 60.2045C100.661 60.2045 99.883 59.9936 99.214 59.5717C98.5492 59.1499 98.0293 58.5597 97.6543 57.8011C97.2836 57.0426 97.0982 56.1562 97.0982 55.142C97.0982 54.1193 97.2836 53.2266 97.6543 52.4638C98.0293 51.701 98.5492 51.1087 99.214 50.6868C99.883 50.2649 100.661 50.054 101.547 50.054C102.433 50.054 103.209 50.2649 103.874 50.6868C104.543 51.1087 105.063 51.701 105.433 52.4638C105.808 53.2266 105.996 54.1193 105.996 55.142C105.996 56.1562 105.808 57.0426 105.433 57.8011C105.063 58.5597 104.543 59.1499 103.874 59.5717C103.209 59.9936 102.433 60.2045 101.547 60.2045ZM101.547 58.8494C102.22 58.8494 102.774 58.6768 103.209 58.3317C103.644 57.9865 103.965 57.5327 104.174 56.9702C104.383 56.4077 104.487 55.7983 104.487 55.142C104.487 54.4858 104.383 53.8743 104.174 53.3075C103.965 52.7408 103.644 52.2827 103.209 51.9332C102.774 51.5838 102.22 51.4091 101.547 51.4091C100.874 51.4091 100.32 51.5838 99.8851 51.9332C99.4505 52.2827 99.1287 52.7408 98.9199 53.3075C98.7111 53.8743 98.6067 54.4858 98.6067 55.142C98.6067 55.7983 98.7111 56.4077 98.9199 56.9702C99.1287 57.5327 99.4505 57.9865 99.8851 58.3317C100.32 58.6768 100.874 58.8494 101.547 58.8494ZM108.299 60V50.1818H109.756V51.6648H109.858C110.037 51.179 110.361 50.7848 110.83 50.4822C111.299 50.1797 111.827 50.0284 112.415 50.0284C112.526 50.0284 112.664 50.0305 112.831 50.0348C112.997 50.0391 113.123 50.0455 113.208 50.054V51.5881C113.157 51.5753 113.039 51.5561 112.856 51.5305C112.677 51.5007 112.488 51.4858 112.287 51.4858C111.81 51.4858 111.384 51.5859 111.009 51.7862C110.638 51.9822 110.344 52.255 110.127 52.6044C109.914 52.9496 109.807 53.3437 109.807 53.7869V60H108.299ZM120.263 60V46.9091H128.112V48.3153H121.848V52.7386H127.524V54.1449H121.848V60H120.263ZM133.891 60.2045C133.004 60.2045 132.227 59.9936 131.558 59.5717C130.893 59.1499 130.373 58.5597 129.998 57.8011C129.627 57.0426 129.442 56.1562 129.442 55.142C129.442 54.1193 129.627 53.2266 129.998 52.4638C130.373 51.701 130.893 51.1087 131.558 50.6868C132.227 50.2649 133.004 50.054 133.891 50.054C134.777 50.054 135.553 50.2649 136.218 50.6868C136.887 51.1087 137.406 51.701 137.777 52.4638C138.152 53.2266 138.34 54.1193 138.34 55.142C138.34 56.1562 138.152 57.0426 137.777 57.8011C137.406 58.5597 136.887 59.1499 136.218 59.5717C135.553 59.9936 134.777 60.2045 133.891 60.2045ZM133.891 58.8494C134.564 58.8494 135.118 58.6768 135.553 58.3317C135.987 57.9865 136.309 57.5327 136.518 56.9702C136.727 56.4077 136.831 55.7983 136.831 55.142C136.831 54.4858 136.727 53.8743 136.518 53.3075C136.309 52.7408 135.987 52.2827 135.553 51.9332C135.118 51.5838 134.564 51.4091 133.891 51.4091C133.218 51.4091 132.664 51.5838 132.229 51.9332C131.794 52.2827 131.472 52.7408 131.264 53.3075C131.055 53.8743 130.95 54.4858 130.95 55.142C130.95 55.7983 131.055 56.4077 131.264 56.9702C131.472 57.5327 131.794 57.9865 132.229 58.3317C132.664 58.6768 133.218 58.8494 133.891 58.8494ZM147.597 52.3807L146.242 52.7642C146.157 52.5384 146.031 52.3189 145.865 52.1058C145.703 51.8885 145.481 51.7095 145.2 51.5689C144.919 51.4283 144.559 51.358 144.12 51.358C143.519 51.358 143.018 51.4964 142.618 51.7734C142.221 52.0462 142.023 52.3935 142.023 52.8153C142.023 53.1903 142.159 53.4865 142.432 53.7038C142.705 53.9212 143.131 54.1023 143.711 54.2472L145.168 54.6051C146.046 54.8182 146.7 55.1442 147.13 55.5831C147.561 56.0178 147.776 56.5781 147.776 57.2642C147.776 57.8267 147.614 58.3295 147.29 58.7727C146.971 59.2159 146.523 59.5653 145.948 59.821C145.373 60.0767 144.703 60.2045 143.941 60.2045C142.939 60.2045 142.11 59.9872 141.454 59.5526C140.798 59.1179 140.382 58.483 140.208 57.6477L141.64 57.2898C141.776 57.8182 142.034 58.2145 142.413 58.4787C142.797 58.7429 143.297 58.875 143.915 58.875C144.618 58.875 145.176 58.7259 145.59 58.4276C146.007 58.125 146.216 57.7628 146.216 57.3409C146.216 57 146.097 56.7145 145.858 56.4844C145.62 56.25 145.253 56.0753 144.759 55.9602L143.123 55.5767C142.223 55.3636 141.563 55.0334 141.141 54.5859C140.723 54.1342 140.515 53.5696 140.515 52.892C140.515 52.3381 140.67 51.848 140.981 51.4219C141.297 50.9957 141.725 50.6612 142.266 50.4183C142.811 50.1754 143.429 50.054 144.12 50.054C145.091 50.054 145.854 50.267 146.408 50.6932C146.966 51.1193 147.363 51.6818 147.597 52.3807ZM154.317 50.1818V51.4602H149.229V50.1818H154.317ZM150.711 47.8295H152.22V57.1875C152.22 57.6136 152.282 57.9332 152.405 58.1463C152.533 58.3551 152.695 58.4957 152.891 58.5682C153.091 58.6364 153.302 58.6705 153.524 58.6705C153.69 58.6705 153.827 58.6619 153.933 58.6449C154.04 58.6236 154.125 58.6065 154.189 58.5938L154.496 59.9489C154.393 59.9872 154.251 60.0256 154.067 60.0639C153.884 60.1065 153.652 60.1278 153.371 60.1278C152.944 60.1278 152.527 60.0362 152.118 59.853C151.713 59.6697 151.376 59.3906 151.108 59.0156C150.844 58.6406 150.711 58.1676 150.711 57.5966V47.8295ZM160.597 60.2045C159.651 60.2045 158.835 59.9957 158.149 59.5781C157.467 59.1562 156.941 58.5682 156.57 57.8139C156.203 57.0554 156.02 56.1733 156.02 55.1676C156.02 54.1619 156.203 53.2756 156.57 52.5085C156.941 51.7372 157.456 51.1364 158.117 50.706C158.781 50.2713 159.557 50.054 160.443 50.054C160.955 50.054 161.46 50.1392 161.958 50.3097C162.457 50.4801 162.911 50.7571 163.32 51.1406C163.729 51.5199 164.055 52.0227 164.298 52.6491C164.541 53.2756 164.662 54.0469 164.662 54.9631V55.6023H157.094V54.2983H163.128C163.128 53.7443 163.017 53.25 162.796 52.8153C162.578 52.3807 162.267 52.0376 161.862 51.7862C161.462 51.5348 160.989 51.4091 160.443 51.4091C159.843 51.4091 159.323 51.5582 158.884 51.8565C158.449 52.1506 158.115 52.5341 157.88 53.0071C157.646 53.4801 157.529 53.9872 157.529 54.5284V55.3977C157.529 56.1392 157.656 56.7678 157.912 57.2834C158.172 57.7947 158.532 58.1847 158.992 58.4531C159.453 58.7173 159.987 58.8494 160.597 58.8494C160.993 58.8494 161.351 58.794 161.671 58.6832C161.994 58.5682 162.274 58.3977 162.508 58.1719C162.742 57.9418 162.923 57.6562 163.051 57.3153L164.509 57.7244C164.355 58.2188 164.097 58.6534 163.735 59.0284C163.373 59.3991 162.926 59.6889 162.393 59.8977C161.86 60.1023 161.262 60.2045 160.597 60.2045ZM166.957 60V50.1818H168.414V51.6648H168.517C168.695 51.179 169.019 50.7848 169.488 50.4822C169.957 50.1797 170.485 50.0284 171.073 50.0284C171.184 50.0284 171.323 50.0305 171.489 50.0348C171.655 50.0391 171.781 50.0455 171.866 50.054V51.5881C171.815 51.5753 171.698 51.5561 171.514 51.5305C171.335 51.5007 171.146 51.4858 170.945 51.4858C170.468 51.4858 170.042 51.5859 169.667 51.7862C169.296 51.9822 169.002 52.255 168.785 52.6044C168.572 52.9496 168.465 53.3437 168.465 53.7869V60H166.957Z" fill="black"/>
<defs>
<filter id="filter0_d_29_234" x="0.965423" y="23.4561" width="221.07" height="59.5041" filterUnits="userSpaceOnUse" color-interpolation-filters="sRGB">
<feFlood flood-opacity="0" result="BackgroundImageFix"/>
<feColorMatrix in="SourceAlpha" type="matrix" values="0 0 0 0 0 0 0 0 0 0 0 0 0 0 0 0 0 0 127 0" result="hardAlpha"/>
<feOffset/>
<feGaussianBlur stdDeviation="4.67038"/>
<feComposite in2="hardAlpha" operator="out"/>
<feColorMatrix type="matrix" values="0 0 0 0 0 0 0 0 0 0 0 0 0 0 0 0 0 0 0.1 0"/>
<feBlend mode="normal" in2="BackgroundImageFix" result="effect1_dropShadow_29_234"/>
<feBlend mode="normal" in="SourceGraphic" in2="effect1_dropShadow_29_234" result="shape"/>
</filter>
<filter id="filter1_d_29_234" x="14.9097" y="69.5851" width="193.181" height="40.7365" filterUnits="userSpaceOnUse" color-interpolation-filters="sRGB">
<feFlood flood-opacity="0" result="BackgroundImageFix"/>
<feColorMatrix in="SourceAlpha" type="matrix" values="0 0 0 0 0 0 0 0 0 0 0 0 0 0 0 0 0 0 127 0" result="hardAlpha"/>
<feOffset/>
<feGaussianBlur stdDeviation="3.27388"/>
<feComposite in2="hardAlpha" operator="out"/>
<feColorMatrix type="matrix" values="0 0 0 0 0 0 0 0 0 0 0 0 0 0 0 0 0 0 0.1 0"/>
<feBlend mode="normal" in2="BackgroundImageFix" result="effect1_dropShadow_29_234"/>
<feBlend mode="normal" in="SourceGraphic" in2="effect1_dropShadow_29_234" result="shape"/>
</filter>
</defs>
</svg>
